<svg height="2686" width="720" xmlns="http://www.w3.org/2000/svg">
<rect height="2686" fill="#555" width="720"></rect>
<text fill="#7f7" font-family="Courier New" font-size="12" xml:space="preserve">
<tspan x="10" y="26">23 megabytes installed</tspan>
<tspan x="10" y="42"></tspan>
<tspan x="10" y="58">node_modules</tspan>
<tspan x="10" y="74">└─┬ how2@1.5.0 </tspan>
<tspan x="10" y="90">  ├── blessed@0.1.81 </tspan>
<tspan x="10" y="106">  ├── colors@1.1.2 </tspan>
<tspan x="10" y="122">  ├─┬ devnull@0.0.12 </tspan>
<tspan x="10" y="138">  │ └── colors@0.6.2 </tspan>
<tspan x="10" y="154">  ├── ent@2.2.0 </tspan>
<tspan x="10" y="170">  ├─┬ google@1.5.0 </tspan>
<tspan x="10" y="186">  │ └─┬ cheerio@0.19.0 </tspan>
<tspan x="10" y="202">  │   ├─┬ css-select@1.0.0 </tspan>
<tspan x="10" y="218">  │   │ ├── boolbase@1.0.0 </tspan>
<tspan x="10" y="234">  │   │ ├── css-what@1.0.0 </tspan>
<tspan x="10" y="250">  │   │ ├── domutils@1.4.3 </tspan>
<tspan x="10" y="266">  │   │ └── nth-check@1.0.1 </tspan>
<tspan x="10" y="282">  │   ├─┬ dom-serializer@0.1.0 </tspan>
<tspan x="10" y="298">  │   │ └── domelementtype@1.1.3 </tspan>
<tspan x="10" y="314">  │   ├── entities@1.1.1 </tspan>
<tspan x="10" y="330">  │   ├─┬ htmlparser2@3.8.3 </tspan>
<tspan x="10" y="346">  │   │ ├── domelementtype@1.3.0 </tspan>
<tspan x="10" y="362">  │   │ ├── domhandler@2.3.0 </tspan>
<tspan x="10" y="378">  │   │ ├── domutils@1.5.1 </tspan>
<tspan x="10" y="394">  │   │ ├── entities@1.0.0 </tspan>
<tspan x="10" y="410">  │   │ └─┬ readable-stream@1.1.14 </tspan>
<tspan x="10" y="426">  │   │   ├── core-util-is@1.0.2 </tspan>
<tspan x="10" y="442">  │   │   ├── inherits@2.0.3 </tspan>
<tspan x="10" y="458">  │   │   ├── isarray@0.0.1 </tspan>
<tspan x="10" y="474">  │   │   └── string_decoder@0.10.31 </tspan>
<tspan x="10" y="490">  │   └── lodash@3.10.1 </tspan>
<tspan x="10" y="506">  ├── keypress@0.2.1 </tspan>
<tspan x="10" y="522">  ├── lodash@4.17.4 </tspan>
<tspan x="10" y="538">  ├── marked@0.3.5 </tspan>
<tspan x="10" y="554">  ├─┬ marked-terminal@1.7.0 </tspan>
<tspan x="10" y="570">  │ ├─┬ cardinal@1.0.0 </tspan>
<tspan x="10" y="586">  │ │ ├── ansicolors@0.2.1 </tspan>
<tspan x="10" y="602">  │ │ └─┬ redeyed@1.0.1 </tspan>
<tspan x="10" y="618">  │ │   └── esprima@3.0.0 </tspan>
<tspan x="10" y="634">  │ ├─┬ chalk@1.1.3 </tspan>
<tspan x="10" y="650">  │ │ ├── ansi-styles@2.2.1 </tspan>
<tspan x="10" y="666">  │ │ ├── escape-string-regexp@1.0.5 </tspan>
<tspan x="10" y="682">  │ │ ├─┬ has-ansi@2.0.0 </tspan>
<tspan x="10" y="698">  │ │ │ └── ansi-regex@2.1.1 </tspan>
<tspan x="10" y="714">  │ │ ├── strip-ansi@3.0.1 </tspan>
<tspan x="10" y="730">  │ │ └── supports-color@2.0.0 </tspan>
<tspan x="10" y="746">  │ ├─┬ cli-table@0.3.1 </tspan>
<tspan x="10" y="762">  │ │ └── colors@1.0.3 </tspan>
<tspan x="10" y="778">  │ ├── lodash.assign@4.2.0 </tspan>
<tspan x="10" y="794">  │ └─┬ node-emoji@1.5.1 </tspan>
<tspan x="10" y="810">  │   └── string.prototype.codepointat@0.2.0 </tspan>
<tspan x="10" y="826">  ├─┬ nconf@0.8.4 </tspan>
<tspan x="10" y="842">  │ ├── async@1.5.2 </tspan>
<tspan x="10" y="858">  │ ├── ini@1.3.4 </tspan>
<tspan x="10" y="874">  │ ├── secure-keys@1.0.0 </tspan>
<tspan x="10" y="890">  │ └─┬ yargs@3.32.0 </tspan>
<tspan x="10" y="906">  │   ├── camelcase@2.1.1 </tspan>
<tspan x="10" y="922">  │   └── window-size@0.1.4 </tspan>
<tspan x="10" y="938">  ├─┬ npm-latest@1.0.2 </tspan>
<tspan x="10" y="954">  │ ├── colors@0.6.2 </tspan>
<tspan x="10" y="970">  │ ├─┬ registry-url@3.1.0 </tspan>
<tspan x="10" y="986">  │ │ └─┬ rc@1.2.1 </tspan>
<tspan x="10" y="1002">  │ │   ├── deep-extend@0.4.1 </tspan>
<tspan x="10" y="1018">  │ │   ├── minimist@1.2.0 </tspan>
<tspan x="10" y="1034">  │ │   └── strip-json-comments@2.0.1 </tspan>
<tspan x="10" y="1050">  │ └── vcsurl@0.1.1 </tspan>
<tspan x="10" y="1066">  ├── openurl@1.1.1 </tspan>
<tspan x="10" y="1082">  ├─┬ request@2.81.0 </tspan>
<tspan x="10" y="1098">  │ ├── aws-sign2@0.6.0 </tspan>
<tspan x="10" y="1114">  │ ├── aws4@1.6.0 </tspan>
<tspan x="10" y="1130">  │ ├── caseless@0.12.0 </tspan>
<tspan x="10" y="1146">  │ ├─┬ combined-stream@1.0.5 </tspan>
<tspan x="10" y="1162">  │ │ └── delayed-stream@1.0.0 </tspan>
<tspan x="10" y="1178">  │ ├── extend@3.0.0 </tspan>
<tspan x="10" y="1194">  │ ├── forever-agent@0.6.1 </tspan>
<tspan x="10" y="1210">  │ ├─┬ form-data@2.1.4 </tspan>
<tspan x="10" y="1226">  │ │ └── asynckit@0.4.0 </tspan>
<tspan x="10" y="1242">  │ ├─┬ har-validator@4.2.1 </tspan>
<tspan x="10" y="1258">  │ │ ├─┬ ajv@4.11.7 </tspan>
<tspan x="10" y="1274">  │ │ │ ├── co@4.6.0 </tspan>
<tspan x="10" y="1290">  │ │ │ └─┬ json-stable-stringify@1.0.1 </tspan>
<tspan x="10" y="1306">  │ │ │   └── jsonify@0.0.0 </tspan>
<tspan x="10" y="1322">  │ │ └── har-schema@1.0.5 </tspan>
<tspan x="10" y="1338">  │ ├─┬ hawk@3.1.3 </tspan>
<tspan x="10" y="1354">  │ │ ├── boom@2.10.1 </tspan>
<tspan x="10" y="1370">  │ │ ├── cryptiles@2.0.5 </tspan>
<tspan x="10" y="1386">  │ │ ├── hoek@2.16.3 </tspan>
<tspan x="10" y="1402">  │ │ └── sntp@1.0.9 </tspan>
<tspan x="10" y="1418">  │ ├─┬ http-signature@1.1.1 </tspan>
<tspan x="10" y="1434">  │ │ ├── assert-plus@0.2.0 </tspan>
<tspan x="10" y="1450">  │ │ ├─┬ jsprim@1.4.0 </tspan>
<tspan x="10" y="1466">  │ │ │ ├── assert-plus@1.0.0 </tspan>
<tspan x="10" y="1482">  │ │ │ ├── extsprintf@1.0.2 </tspan>
<tspan x="10" y="1498">  │ │ │ ├── json-schema@0.2.3 </tspan>
<tspan x="10" y="1514">  │ │ │ └── verror@1.3.6 </tspan>
<tspan x="10" y="1530">  │ │ └─┬ sshpk@1.13.0 </tspan>
<tspan x="10" y="1546">  │ │   ├── asn1@0.2.3 </tspan>
<tspan x="10" y="1562">  │ │   ├── assert-plus@1.0.0 </tspan>
<tspan x="10" y="1578">  │ │   ├── bcrypt-pbkdf@1.0.1 </tspan>
<tspan x="10" y="1594">  │ │   ├─┬ dashdash@1.14.1 </tspan>
<tspan x="10" y="1610">  │ │   │ └── assert-plus@1.0.0 </tspan>
<tspan x="10" y="1626">  │ │   ├── ecc-jsbn@0.1.1 </tspan>
<tspan x="10" y="1642">  │ │   ├─┬ getpass@0.1.6 </tspan>
<tspan x="10" y="1658">  │ │   │ └── assert-plus@1.0.0 </tspan>
<tspan x="10" y="1674">  │ │   ├── jodid25519@1.0.2 </tspan>
<tspan x="10" y="1690">  │ │   ├── jsbn@0.1.1 </tspan>
<tspan x="10" y="1706">  │ │   └── tweetnacl@0.14.5 </tspan>
<tspan x="10" y="1722">  │ ├── is-typedarray@1.0.0 </tspan>
<tspan x="10" y="1738">  │ ├── isstream@0.1.2 </tspan>
<tspan x="10" y="1754">  │ ├── json-stringify-safe@5.0.1 </tspan>
<tspan x="10" y="1770">  │ ├─┬ mime-types@2.1.15 </tspan>
<tspan x="10" y="1786">  │ │ └── mime-db@1.27.0 </tspan>
<tspan x="10" y="1802">  │ ├── oauth-sign@0.8.2 </tspan>
<tspan x="10" y="1818">  │ ├── performance-now@0.2.0 </tspan>
<tspan x="10" y="1834">  │ ├── qs@6.4.0 </tspan>
<tspan x="10" y="1850">  │ ├── safe-buffer@5.0.1 </tspan>
<tspan x="10" y="1866">  │ ├── stringstream@0.0.5 </tspan>
<tspan x="10" y="1882">  │ ├─┬ tough-cookie@2.3.2 </tspan>
<tspan x="10" y="1898">  │ │ └── punycode@1.4.1 </tspan>
<tspan x="10" y="1914">  │ ├── tunnel-agent@0.6.0 </tspan>
<tspan x="10" y="1930">  │ └── uuid@3.0.1 </tspan>
<tspan x="10" y="1946">  ├── semver@5.1.0 </tspan>
<tspan x="10" y="1962">  ├─┬ simple-spinner@0.0.5 </tspan>
<tspan x="10" y="1978">  │ └── ansi@0.3.1 </tspan>
<tspan x="10" y="1994">  └─┬ yargs@4.8.1 </tspan>
<tspan x="10" y="2010">    ├─┬ cliui@3.2.0 </tspan>
<tspan x="10" y="2026">    │ └── wrap-ansi@2.1.0 </tspan>
<tspan x="10" y="2042">    ├── decamelize@1.2.0 </tspan>
<tspan x="10" y="2058">    ├── get-caller-file@1.0.2 </tspan>
<tspan x="10" y="2074">    ├─┬ os-locale@1.4.0 </tspan>
<tspan x="10" y="2090">    │ └─┬ lcid@1.0.0 </tspan>
<tspan x="10" y="2106">    │   └── invert-kv@1.0.0 </tspan>
<tspan x="10" y="2122">    ├─┬ read-pkg-up@1.0.1 </tspan>
<tspan x="10" y="2138">    │ ├─┬ find-up@1.1.2 </tspan>
<tspan x="10" y="2154">    │ │ ├── path-exists@2.1.0 </tspan>
<tspan x="10" y="2170">    │ │ └─┬ pinkie-promise@2.0.1 </tspan>
<tspan x="10" y="2186">    │ │   └── pinkie@2.0.4 </tspan>
<tspan x="10" y="2202">    │ └─┬ read-pkg@1.1.0 </tspan>
<tspan x="10" y="2218">    │   ├─┬ load-json-file@1.1.0 </tspan>
<tspan x="10" y="2234">    │   │ ├── graceful-fs@4.1.11 </tspan>
<tspan x="10" y="2250">    │   │ ├─┬ parse-json@2.2.0 </tspan>
<tspan x="10" y="2266">    │   │ │ └─┬ error-ex@1.3.1 </tspan>
<tspan x="10" y="2282">    │   │ │   └── is-arrayish@0.2.1 </tspan>
<tspan x="10" y="2298">    │   │ ├── pify@2.3.0 </tspan>
<tspan x="10" y="2314">    │   │ └─┬ strip-bom@2.0.0 </tspan>
<tspan x="10" y="2330">    │   │   └── is-utf8@0.2.1 </tspan>
<tspan x="10" y="2346">    │   ├─┬ normalize-package-data@2.3.6 </tspan>
<tspan x="10" y="2362">    │   │ ├── hosted-git-info@2.4.2 </tspan>
<tspan x="10" y="2378">    │   │ ├─┬ is-builtin-module@1.0.0 </tspan>
<tspan x="10" y="2394">    │   │ │ └── builtin-modules@1.1.1 </tspan>
<tspan x="10" y="2410">    │   │ └─┬ validate-npm-package-license@3.0.1 </tspan>
<tspan x="10" y="2426">    │   │   ├─┬ spdx-correct@1.0.2 </tspan>
<tspan x="10" y="2442">    │   │   │ └── spdx-license-ids@1.2.2 </tspan>
<tspan x="10" y="2458">    │   │   └── spdx-expression-parse@1.0.4 </tspan>
<tspan x="10" y="2474">    │   └── path-type@1.1.0 </tspan>
<tspan x="10" y="2490">    ├── require-directory@2.1.1 </tspan>
<tspan x="10" y="2506">    ├── require-main-filename@1.0.1 </tspan>
<tspan x="10" y="2522">    ├── set-blocking@2.0.0 </tspan>
<tspan x="10" y="2538">    ├─┬ string-width@1.0.2 </tspan>
<tspan x="10" y="2554">    │ ├── code-point-at@1.1.0 </tspan>
<tspan x="10" y="2570">    │ └─┬ is-fullwidth-code-point@1.0.0 </tspan>
<tspan x="10" y="2586">    │   └── number-is-nan@1.0.1 </tspan>
<tspan x="10" y="2602">    ├── which-module@1.0.0 </tspan>
<tspan x="10" y="2618">    ├── window-size@0.2.0 </tspan>
<tspan x="10" y="2634">    ├── y18n@3.2.1 </tspan>
<tspan x="10" y="2650">    └─┬ yargs-parser@2.4.1 </tspan>
<tspan x="10" y="2666">      └── camelcase@3.0.0</tspan>
</text>
</svg>
